<svg class="animated" id="freepik_stories-welcome-aboard" xmlns="http://www.w3.org/2000/svg" viewBox="0 0 500 500" version="1.1" xmlns:xlink="http://www.w3.org/1999/xlink" xmlns:svgjs="http://svgjs.com/svgjs"><style>svg#freepik_stories-welcome-aboard:not(.animated) .animable {opacity: 0;}svg#freepik_stories-welcome-aboard.animated #eloijjs34pak {animation: 1s 1 forwards ease-out lightSpeedRight;animation-delay: 0s;}svg#freepik_stories-welcome-aboard.animated #elzgy5zd2k4gh {animation: 1s 1 forwards ease-out lightSpeedRight;animation-delay: 0.043478260869565216s;opacity: 0}svg#freepik_stories-welcome-aboard.animated #elao7m16feo4c {animation: 1s 1 forwards ease-out lightSpeedRight;animation-delay: 0.08695652173913043s;opacity: 0}svg#freepik_stories-welcome-aboard.animated #el7q0wp50dtpv {animation: 1s 1 forwards ease-out lightSpeedRight;animation-delay: 0.13043478260869565s;opacity: 0}svg#freepik_stories-welcome-aboard.animated #elzebn0pp21dr {animation: 1s 1 forwards ease-out lightSpeedRight;animation-delay: 0.17391304347826086s;opacity: 0}svg#freepik_stories-welcome-aboard.animated #elv5fng29cfws {animation: 1s 1 forwards ease-out lightSpeedRight;animation-delay: 0.21739130434782608s;opacity: 0}svg#freepik_stories-welcome-aboard.animated #elr056l90wu3q {animation: 1s 1 forwards ease-out lightSpeedRight;animation-delay: 0.2608695652173913s;opacity: 0}svg#freepik_stories-welcome-aboard.animated #eltfz2cr2h1eq {animation: 1s 1 forwards ease-out lightSpeedRight;animation-delay: 0.30434782608695654s;opacity: 0}svg#freepik_stories-welcome-aboard.animated #el0mtayqn8tcgb {animation: 1s 1 forwards ease-out lightSpeedRight;animation-delay: 0.34782608695652173s;opacity: 0}svg#freepik_stories-welcome-aboard.animated #elqd3l7n92dlh {animation: 1s 1 forwards ease-out lightSpeedRight;animation-delay: 0.3913043478260869s;opacity: 0}svg#freepik_stories-welcome-aboard.animated #elpr2mqhtzu79 {animation: 1s 1 forwards ease-out lightSpeedRight;animation-delay: 0.43478260869565216s;opacity: 0}svg#freepik_stories-welcome-aboard.animated #elsi2m70qp6c {animation: 1s 1 forwards ease-out lightSpeedRight;animation-delay: 0.4782608695652174s;opacity: 0}svg#freepik_stories-welcome-aboard.animated #elowlzrevsuac {animation: 1s 1 forwards ease-out lightSpeedRight;animation-delay: 0.5217391304347826s;opacity: 0}svg#freepik_stories-welcome-aboard.animated #elnctg7y5xncq {animation: 1s 1 forwards ease-out lightSpeedRight;animation-delay: 0.5652173913043478s;opacity: 0}svg#freepik_stories-welcome-aboard.animated #eldal6tnvo52l {animation: 1s 1 forwards ease-out lightSpeedRight;animation-delay: 0.6086956521739131s;opacity: 0}svg#freepik_stories-welcome-aboard.animated #eleaot9b9za4l {animation: 1s 1 forwards ease-out lightSpeedRight;animation-delay: 0.6521739130434783s;opacity: 0}svg#freepik_stories-welcome-aboard.animated #eloch9aig03ii {animation: 1s 1 forwards ease-out lightSpeedRight;animation-delay: 0.6956521739130435s;opacity: 0}svg#freepik_stories-welcome-aboard.animated #eltd2okoxtf9i {animation: 1s 1 forwards ease-out lightSpeedRight;animation-delay: 0.7391304347826086s;opacity: 0}svg#freepik_stories-welcome-aboard.animated #elhjrnh2o5et9 {animation: 1s 1 forwards ease-out lightSpeedRight;animation-delay: 0.7826086956521738s;opacity: 0}svg#freepik_stories-welcome-aboard.animated #ellnj8icj0l4e {animation: 1s 1 forwards ease-out lightSpeedRight;animation-delay: 0.8260869565217391s;opacity: 0}svg#freepik_stories-welcome-aboard.animated #el4erggotheio {animation: 1s 1 forwards ease-out lightSpeedRight;animation-delay: 0.8695652173913043s;opacity: 0}svg#freepik_stories-welcome-aboard.animated #elj3a7f8322km {animation: 1s 1 forwards ease-out lightSpeedRight;animation-delay: 0.9130434782608695s;opacity: 0}svg#freepik_stories-welcome-aboard.animated #elh7u6t9lt63l {animation: 1s 1 forwards ease-out lightSpeedRight;animation-delay: 0.9565217391304348s;opacity: 0}svg#freepik_stories-welcome-aboard.animated #freepik--background-complete--inject-2 {animation: 1s 1 forwards ease-out lightSpeedRight,1.5s Infinite  linear floating;animation-delay: 0s,1s;}svg#freepik_stories-welcome-aboard.animated #el54x02fprhbc {animation: 1s 1 forwards cubic-bezier(.36,-0.01,.5,1.38) lightSpeedRight;animation-delay: 0s;}svg#freepik_stories-welcome-aboard.animated #elgahi4a0lsp {animation: 1s 1 forwards cubic-bezier(.36,-0.01,.5,1.38) lightSpeedRight;animation-delay: 0.014285714285714285s;opacity: 0}svg#freepik_stories-welcome-aboard.animated #elwrd222rauer {animation: 1s 1 forwards cubic-bezier(.36,-0.01,.5,1.38) lightSpeedRight;animation-delay: 0.02857142857142857s;opacity: 0}svg#freepik_stories-welcome-aboard.animated #elmh8u3mso4vq {animation: 1s 1 forwards cubic-bezier(.36,-0.01,.5,1.38) lightSpeedRight;animation-delay: 0.04285714285714286s;opacity: 0}svg#freepik_stories-welcome-aboard.animated #elolyl03j8qj {animation: 1s 1 forwards cubic-bezier(.36,-0.01,.5,1.38) lightSpeedRight;animation-delay: 0.05714285714285714s;opacity: 0}svg#freepik_stories-welcome-aboard.animated #elb7cy3nyun5i {animation: 1s 1 forwards cubic-bezier(.36,-0.01,.5,1.38) lightSpeedRight;animation-delay: 0.07142857142857142s;opacity: 0}svg#freepik_stories-welcome-aboard.animated #elzvvx0fg991e {animation: 1s 1 forwards cubic-bezier(.36,-0.01,.5,1.38) lightSpeedRight;animation-delay: 0.08571428571428572s;opacity: 0}svg#freepik_stories-welcome-aboard.animated #elyzb0f3tlo5 {animation: 1s 1 forwards cubic-bezier(.36,-0.01,.5,1.38) lightSpeedRight;animation-delay: 0.09999999999999999s;opacity: 0}svg#freepik_stories-welcome-aboard.animated #elqu2jh6v38j {animation: 1s 1 forwards cubic-bezier(.36,-0.01,.5,1.38) lightSpeedRight;animation-delay: 0.11428571428571428s;opacity: 0}svg#freepik_stories-welcome-aboard.animated #el92146992uuc {animation: 1s 1 forwards cubic-bezier(.36,-0.01,.5,1.38) lightSpeedRight;animation-delay: 0.12857142857142856s;opacity: 0}svg#freepik_stories-welcome-aboard.animated #el7gdz2ie0zcp {animation: 1s 1 forwards cubic-bezier(.36,-0.01,.5,1.38) lightSpeedRight;animation-delay: 0.14285714285714285s;opacity: 0}svg#freepik_stories-welcome-aboard.animated #elwfd22zbukei {animation: 1s 1 forwards cubic-bezier(.36,-0.01,.5,1.38) lightSpeedRight;animation-delay: 0.15714285714285714s;opacity: 0}svg#freepik_stories-welcome-aboard.animated #elmedn60ko5vi {animation: 1s 1 forwards cubic-bezier(.36,-0.01,.5,1.38) lightSpeedRight;animation-delay: 0.17142857142857143s;opacity: 0}svg#freepik_stories-welcome-aboard.animated #elo0f8begbdcn {animation: 1s 1 forwards cubic-bezier(.36,-0.01,.5,1.38) lightSpeedRight;animation-delay: 0.18571428571428572s;opacity: 0}svg#freepik_stories-welcome-aboard.animated #eljopshznq4dc {animation: 1s 1 forwards cubic-bezier(.36,-0.01,.5,1.38) lightSpeedRight;animation-delay: 0.19999999999999998s;opacity: 0}svg#freepik_stories-welcome-aboard.animated #el3srl5sat1au {animation: 1s 1 forwards cubic-bezier(.36,-0.01,.5,1.38) lightSpeedRight;animation-delay: 0.21428571428571427s;opacity: 0}svg#freepik_stories-welcome-aboard.animated #elnbdqzmzs7j9 {animation: 1s 1 forwards cubic-bezier(.36,-0.01,.5,1.38) lightSpeedRight;animation-delay: 0.22857142857142856s;opacity: 0}svg#freepik_stories-welcome-aboard.animated #el4dkygvl3iax {animation: 1s 1 forwards cubic-bezier(.36,-0.01,.5,1.38) lightSpeedRight;animation-delay: 0.24285714285714285s;opacity: 0}svg#freepik_stories-welcome-aboard.animated #ellfzdgeuculq {animation: 1s 1 forwards cubic-bezier(.36,-0.01,.5,1.38) lightSpeedRight;animation-delay: 0.2571428571428571s;opacity: 0}svg#freepik_stories-welcome-aboard.animated #elnz1okpgmjnb {animation: 1s 1 forwards cubic-bezier(.36,-0.01,.5,1.38) lightSpeedRight;animation-delay: 0.2714285714285714s;opacity: 0}svg#freepik_stories-welcome-aboard.animated #elen61na7sc29 {animation: 1s 1 forwards cubic-bezier(.36,-0.01,.5,1.38) lightSpeedRight;animation-delay: 0.2857142857142857s;opacity: 0}svg#freepik_stories-welcome-aboard.animated #eltm6126910te {animation: 1s 1 forwards cubic-bezier(.36,-0.01,.5,1.38) lightSpeedRight;animation-delay: 0.3s;opacity: 0}svg#freepik_stories-welcome-aboard.animated #elg53d5o1nhb7 {animation: 1s 1 forwards cubic-bezier(.36,-0.01,.5,1.38) lightSpeedRight;animation-delay: 0.3142857142857143s;opacity: 0}svg#freepik_stories-welcome-aboard.animated #elulo61f2wwyg {animation: 1s 1 forwards cubic-bezier(.36,-0.01,.5,1.38) lightSpeedRight;animation-delay: 0.32857142857142857s;opacity: 0}svg#freepik_stories-welcome-aboard.animated #elwsijfznek99 {animation: 1s 1 forwards cubic-bezier(.36,-0.01,.5,1.38) lightSpeedRight;animation-delay: 0.34285714285714286s;opacity: 0}svg#freepik_stories-welcome-aboard.animated #eldjdshgg3xva {animation: 1s 1 forwards cubic-bezier(.36,-0.01,.5,1.38) lightSpeedRight;animation-delay: 0.35714285714285715s;opacity: 0}svg#freepik_stories-welcome-aboard.animated #elch3smtpil8h {animation: 1s 1 forwards cubic-bezier(.36,-0.01,.5,1.38) lightSpeedRight;animation-delay: 0.37142857142857144s;opacity: 0}svg#freepik_stories-welcome-aboard.animated #elxphydge6d0g {animation: 1s 1 forwards cubic-bezier(.36,-0.01,.5,1.38) lightSpeedRight;animation-delay: 0.3857142857142857s;opacity: 0}svg#freepik_stories-welcome-aboard.animated #el803xulv35nl {animation: 1s 1 forwards cubic-bezier(.36,-0.01,.5,1.38) lightSpeedRight;animation-delay: 0.39999999999999997s;opacity: 0}svg#freepik_stories-welcome-aboard.animated #el5sp8i32s0gv {animation: 1s 1 forwards cubic-bezier(.36,-0.01,.5,1.38) lightSpeedRight;animation-delay: 0.41428571428571426s;opacity: 0}svg#freepik_stories-welcome-aboard.animated #elt6abl8clit {animation: 1s 1 forwards cubic-bezier(.36,-0.01,.5,1.38) lightSpeedRight;animation-delay: 0.42857142857142855s;opacity: 0}svg#freepik_stories-welcome-aboard.animated #elfsa5zpbgyec {animation: 1s 1 forwards cubic-bezier(.36,-0.01,.5,1.38) lightSpeedRight;animation-delay: 0.44285714285714284s;opacity: 0}svg#freepik_stories-welcome-aboard.animated #elfj2waqkhd1o {animation: 1s 1 forwards cubic-bezier(.36,-0.01,.5,1.38) lightSpeedRight;animation-delay: 0.45714285714285713s;opacity: 0}svg#freepik_stories-welcome-aboard.animated #ele6v6bbylyvf {animation: 1s 1 forwards cubic-bezier(.36,-0.01,.5,1.38) lightSpeedRight;animation-delay: 0.4714285714285714s;opacity: 0}svg#freepik_stories-welcome-aboard.animated #elq0aaqh02daf {animation: 1s 1 forwards cubic-bezier(.36,-0.01,.5,1.38) lightSpeedRight;animation-delay: 0.4857142857142857s;opacity: 0}svg#freepik_stories-welcome-aboard.animated #eliaejoj4zimi {animation: 1s 1 forwards cubic-bezier(.36,-0.01,.5,1.38) lightSpeedRight;animation-delay: 0.5s;opacity: 0}svg#freepik_stories-welcome-aboard.animated #els3z0ts1s9f {animation: 1s 1 forwards cubic-bezier(.36,-0.01,.5,1.38) lightSpeedRight;animation-delay: 0.5142857142857142s;opacity: 0}svg#freepik_stories-welcome-aboard.animated #el52qke15ppw {animation: 1s 1 forwards cubic-bezier(.36,-0.01,.5,1.38) lightSpeedRight;animation-delay: 0.5285714285714286s;opacity: 0}svg#freepik_stories-welcome-aboard.animated #elkxsq52m801 {animation: 1s 1 forwards cubic-bezier(.36,-0.01,.5,1.38) lightSpeedRight;animation-delay: 0.5428571428571428s;opacity: 0}svg#freepik_stories-welcome-aboard.animated #elchehvwdmm6f {animation: 1s 1 forwards cubic-bezier(.36,-0.01,.5,1.38) lightSpeedRight;animation-delay: 0.5571428571428572s;opacity: 0}svg#freepik_stories-welcome-aboard.animated #el1q1amojp2ia {animation: 1s 1 forwards cubic-bezier(.36,-0.01,.5,1.38) lightSpeedRight;animation-delay: 0.5714285714285714s;opacity: 0}svg#freepik_stories-welcome-aboard.animated #elldqqiitn7np {animation: 1s 1 forwards cubic-bezier(.36,-0.01,.5,1.38) lightSpeedRight;animation-delay: 0.5857142857142857s;opacity: 0}svg#freepik_stories-welcome-aboard.animated #elga3i3gcgv8o {animation: 1s 1 forwards cubic-bezier(.36,-0.01,.5,1.38) lightSpeedRight;animation-delay: 0.6s;opacity: 0}svg#freepik_stories-welcome-aboard.animated #elj9yd90m1y1m {animation: 1s 1 forwards cubic-bezier(.36,-0.01,.5,1.38) lightSpeedRight;animation-delay: 0.6142857142857142s;opacity: 0}svg#freepik_stories-welcome-aboard.animated #elpdoa7eb3ls8 {animation: 1s 1 forwards cubic-bezier(.36,-0.01,.5,1.38) lightSpeedRight;animation-delay: 0.6285714285714286s;opacity: 0}svg#freepik_stories-welcome-aboard.animated #el0ttug27g66d {animation: 1s 1 forwards cubic-bezier(.36,-0.01,.5,1.38) lightSpeedRight;animation-delay: 0.6428571428571428s;opacity: 0}svg#freepik_stories-welcome-aboard.animated #elm7idi2cas0s {animation: 1s 1 forwards cubic-bezier(.36,-0.01,.5,1.38) lightSpeedRight;animation-delay: 0.6571428571428571s;opacity: 0}svg#freepik_stories-welcome-aboard.animated #elpokoih481hm {animation: 1s 1 forwards cubic-bezier(.36,-0.01,.5,1.38) lightSpeedRight;animation-delay: 0.6714285714285714s;opacity: 0}svg#freepik_stories-welcome-aboard.animated #ellfee47k4ru {animation: 1s 1 forwards cubic-bezier(.36,-0.01,.5,1.38) lightSpeedRight;animation-delay: 0.6857142857142857s;opacity: 0}svg#freepik_stories-welcome-aboard.animated #elwi6z29tdhpm {animation: 1s 1 forwards cubic-bezier(.36,-0.01,.5,1.38) lightSpeedRight;animation-delay: 0.7s;opacity: 0}svg#freepik_stories-welcome-aboard.animated #elgvujpqx3fsp {animation: 1s 1 forwards cubic-bezier(.36,-0.01,.5,1.38) lightSpeedRight;animation-delay: 0.7142857142857143s;opacity: 0}svg#freepik_stories-welcome-aboard.animated #elrt90mkztdto {animation: 1s 1 forwards cubic-bezier(.36,-0.01,.5,1.38) lightSpeedRight;animation-delay: 0.7285714285714285s;opacity: 0}svg#freepik_stories-welcome-aboard.animated #eley02s4qileh {animation: 1s 1 forwards cubic-bezier(.36,-0.01,.5,1.38) lightSpeedRight;animation-delay: 0.7428571428571429s;opacity: 0}svg#freepik_stories-welcome-aboard.animated #ele108cb0f27s {animation: 1s 1 forwards cubic-bezier(.36,-0.01,.5,1.38) lightSpeedRight;animation-delay: 0.7571428571428571s;opacity: 0}svg#freepik_stories-welcome-aboard.animated #elatboxvyjmv {animation: 1s 1 forwards cubic-bezier(.36,-0.01,.5,1.38) lightSpeedRight;animation-delay: 0.7714285714285714s;opacity: 0}svg#freepik_stories-welcome-aboard.animated #eluundnplmq1h {animation: 1s 1 forwards cubic-bezier(.36,-0.01,.5,1.38) lightSpeedRight;animation-delay: 0.7857142857142857s;opacity: 0}svg#freepik_stories-welcome-aboard.animated #elv2mm6tppzn {animation: 1s 1 forwards cubic-bezier(.36,-0.01,.5,1.38) lightSpeedRight;animation-delay: 0.7999999999999999s;opacity: 0}svg#freepik_stories-welcome-aboard.animated #eldqihivivtt {animation: 1s 1 forwards cubic-bezier(.36,-0.01,.5,1.38) lightSpeedRight;animation-delay: 0.8142857142857143s;opacity: 0}svg#freepik_stories-welcome-aboard.animated #el3inag9lqa22 {animation: 1s 1 forwards cubic-bezier(.36,-0.01,.5,1.38) lightSpeedRight;animation-delay: 0.8285714285714285s;opacity: 0}svg#freepik_stories-welcome-aboard.animated #elsv6bc1azg1b {animation: 1s 1 forwards cubic-bezier(.36,-0.01,.5,1.38) lightSpeedRight;animation-delay: 0.8428571428571429s;opacity: 0}svg#freepik_stories-welcome-aboard.animated #elzl54wxq51j {animation: 1s 1 forwards cubic-bezier(.36,-0.01,.5,1.38) lightSpeedRight;animation-delay: 0.8571428571428571s;opacity: 0}svg#freepik_stories-welcome-aboard.animated #elfm9axyurwpv {animation: 1s 1 forwards cubic-bezier(.36,-0.01,.5,1.38) lightSpeedRight;animation-delay: 0.8714285714285714s;opacity: 0}svg#freepik_stories-welcome-aboard.animated #elsm87dssi56p {animation: 1s 1 forwards cubic-bezier(.36,-0.01,.5,1.38) lightSpeedRight;animation-delay: 0.8857142857142857s;opacity: 0}svg#freepik_stories-welcome-aboard.animated #elga6k7gwy1ef {animation: 1s 1 forwards cubic-bezier(.36,-0.01,.5,1.38) lightSpeedRight;animation-delay: 0.9s;opacity: 0}svg#freepik_stories-welcome-aboard.animated #elydgeom48yf {animation: 1s 1 forwards cubic-bezier(.36,-0.01,.5,1.38) lightSpeedRight;animation-delay: 0.9142857142857143s;opacity: 0}svg#freepik_stories-welcome-aboard.animated #elbaske1xb8c {animation: 1s 1 forwards cubic-bezier(.36,-0.01,.5,1.38) lightSpeedRight;animation-delay: 0.9285714285714285s;opacity: 0}svg#freepik_stories-welcome-aboard.animated #eleb60dvvzjoe {animation: 1s 1 forwards cubic-bezier(.36,-0.01,.5,1.38) lightSpeedRight;animation-delay: 0.9428571428571428s;opacity: 0}svg#freepik_stories-welcome-aboard.animated #el4d04qa1vwgr {animation: 1s 1 forwards cubic-bezier(.36,-0.01,.5,1.38) lightSpeedRight;animation-delay: 0.9571428571428571s;opacity: 0}svg#freepik_stories-welcome-aboard.animated #ellchqpo1ccp {animation: 1s 1 forwards cubic-bezier(.36,-0.01,.5,1.38) lightSpeedRight;animation-delay: 0.9714285714285714s;opacity: 0}svg#freepik_stories-welcome-aboard.animated #el61zi5xbwk3q {animation: 1s 1 forwards cubic-bezier(.36,-0.01,.5,1.38) lightSpeedRight;animation-delay: 0.9857142857142857s;opacity: 0}svg#freepik_stories-welcome-aboard.animated #freepik--Character--inject-2 {animation: 1s 1 forwards cubic-bezier(.36,-0.01,.5,1.38) lightSpeedRight,3s Infinite  linear floating;animation-delay: 0s,1s;}            @keyframes lightSpeedRight {              from {                transform: translate3d(50%, 0, 0) skewX(-20deg);                opacity: 0;              }              60% {                transform: skewX(10deg);                opacity: 1;              }              80% {                transform: skewX(-2deg);              }              to {                opacity: 1;                transform: translate3d(0, 0, 0);              }            }                    @keyframes floating {                0% {                    opacity: 1;                    transform: translateY(0px);                }                50% {                    transform: translateY(-10px);                }                100% {                    opacity: 1;                    transform: translateY(0px);                }            }        .animator-hidden { display: none; }</style><g id="freepik--background-complete--inject-2" class="animable animator-hidden" style="transform-origin: 250px 242.3px;"><path d="M444.71,349.14H264a5.87,5.87,0,0,1-5.86-5.86V80A5.87,5.87,0,0,1,264,74.15H444.71A5.87,5.87,0,0,1,450.57,80V343.28A5.87,5.87,0,0,1,444.71,349.14ZM264,74.4A5.61,5.61,0,0,0,258.35,80V343.28a5.61,5.61,0,0,0,5.61,5.61H444.71a5.61,5.61,0,0,0,5.61-5.61V80a5.61,5.61,0,0,0-5.61-5.61Z" style="fill: rgb(240, 240, 240); transform-origin: 354.355px 211.645px;" id="eloijjs34pak" class="animable"></path><path d="M236.28,349.14H55.53a5.87,5.87,0,0,1-5.86-5.86V80a5.87,5.87,0,0,1,5.86-5.86H236.28A5.87,5.87,0,0,1,242.14,80V343.28A5.87,5.87,0,0,1,236.28,349.14ZM55.53,74.4A5.61,5.61,0,0,0,49.92,80V343.28a5.61,5.61,0,0,0,5.61,5.61H236.28a5.61,5.61,0,0,0,5.61-5.61V80a5.61,5.61,0,0,0-5.61-5.61Z" style="fill: rgb(240, 240, 240); transform-origin: 145.905px 211.64px;" id="elzgy5zd2k4gh" class="animable"></path><rect y="410.21" width="500" height="0.25" style="fill: rgb(240, 240, 240); transform-origin: 250px 410.335px;" id="elao7m16feo4c" class="animable"></rect><path d="M152.52,332.87,129.41,321l-2.56,26,8.25-4.52c2.34,5.85,4.8,15.09,2.35,24.64a33.11,33.11,0,0,1-9.36,15.58,10.9,10.9,0,0,1-6.42,2.34c-4.23,0-7.88-5.88-9.33-8.56q-1.87-3.8-3.77-7.59c-2.06-4.12-4.1-8.26-6.22-12.35Q96.08,344.16,89.58,332,84,321.5,78.15,311.19L108,294.83l-4.67-8.51L82.39,297.8A19.13,19.13,0,1,0,56,312.31L35.05,323.78l4.66,8.5,29.82-16.36q5.53,10.49,11.39,20.8,6.78,12,13.82,23.95c2.32,4,4.71,7.93,7.08,11.88l3.6,6h0v0l.31.49c1.18,2,5.16,9.24,2.64,13.22-1.84,2.9-5,4.2-7.42,4.79a32.6,32.6,0,0,1-16.65-.77c-9.35-3-15.87-10.11-19.58-15.25L73,376.53l-23.29-11.8-2.37,25.89,8.86-4.87c4.4,6.38,12.62,15.67,25.07,19.74,9.75,3.19,20.22,2.59,31.21-1.76l0,0a18.41,18.41,0,0,1,7.25,0,12.06,12.06,0,0,1,5.1,2.8c.13.16.26.33.4.49-.07-.2-.14-.4-.2-.6a12.05,12.05,0,0,1,.37-5.8,19.67,19.67,0,0,1,4-6.3l-.07,0c9.2-6.84,15.12-15.18,17.61-24.9,3.26-12.69-.17-24.61-3.19-31.74ZM59,286.5a9.43,9.43,0,1,1-3.73,12.8A9.45,9.45,0,0,1,59,286.5Z" style="fill: rgb(240, 240, 240); transform-origin: 93.785px 341.546px;" id="el7q0wp50dtpv" class="animable"></path><path d="M362.66,337.74c-3,7.13-6.44,19.05-3.18,31.74,2.49,9.72,8.41,18.06,17.61,24.9l-.07,0a19.67,19.67,0,0,1,4,6.3,12.05,12.05,0,0,1,.37,5.8c-.06.2-.14.4-.2.6.14-.16.27-.33.4-.49a12,12,0,0,1,5.09-2.8,18.41,18.41,0,0,1,7.25,0l0,0c11,4.35,21.45,4.95,31.21,1.76,12.45-4.07,20.66-13.36,25.06-19.74l8.87,4.87-2.37-25.89-23.3,11.8,8.23,4.52c-3.71,5.14-10.23,12.22-19.58,15.25a32.6,32.6,0,0,1-16.65.77c-2.37-.59-5.59-1.89-7.42-4.79-2.53-4,1.46-11.23,2.64-13.22.1-.16.2-.33.31-.49v0h0c1.2-2,2.39-4,3.6-6,2.37-3.95,4.76-7.9,7.08-11.88q7-11.91,13.82-23.95,5.84-10.32,11.39-20.8l29.82,16.36,4.66-8.5-20.91-11.47a19.13,19.13,0,1,0-26.43-14.51L403,286.32l-4.67,8.51,29.82,16.36c-3.92,6.87-7.71,13.8-11.43,20.78q-6.51,12.19-12.77,24.52c-2.12,4.09-4.16,8.23-6.22,12.35L394,376.43c-1.44,2.68-5.09,8.55-9.33,8.56a10.9,10.9,0,0,1-6.41-2.34,33,33,0,0,1-9.36-15.58c-2.45-9.55,0-18.79,2.35-24.64l8.24,4.52-2.56-26-23.1,11.91Zm88.4-38.44a9.43,9.43,0,1,1-3.74-12.8A9.44,9.44,0,0,1,451.06,299.3Z" style="fill: rgb(240, 240, 240); transform-origin: 412.565px 341.624px;" id="elzebn0pp21dr" class="animable"></path><path d="M87.65,222.71a.37.37,0,0,1-.52-.47c2.06-5.18,12.72-31,19.93-29.16C117.49,195.75,99.62,216.63,87.65,222.71Z" style="fill: rgb(245, 245, 245); transform-origin: 98.6516px 207.872px;" id="elv5fng29cfws" class="animable"></path><path d="M69.71,185.33a.33.33,0,0,1-.49-.38c1.45-4.74,9-28.37,15.56-27.26C94.22,159.31,79.88,179.09,69.71,185.33Z" style="fill: rgb(245, 245, 245); transform-origin: 78.532px 171.516px;" id="elr056l90wu3q" class="animable"></path><path d="M76.25,202.05a.37.37,0,0,1-.49-.5c2.34-5.05,14.43-30.24,21.52-28C107.55,176.8,88.54,196.65,76.25,202.05Z" style="fill: rgb(245, 245, 245); transform-origin: 87.9685px 187.748px;" id="eltfz2cr2h1eq" class="animable"></path><path d="M108,247.72a.87.87,0,0,1-.16.3,1,1,0,0,1-1.36.18c-8-6.14-15.32-14.7-21.72-25.44a162.08,162.08,0,0,1-13.51-29.63,211.83,211.83,0,0,1-8.92-34.87,1,1,0,0,1,1.92-.28,209.54,209.54,0,0,0,8.85,34.55c6,17.2,16.84,40.55,34.56,54.13A1,1,0,0,1,108,247.72Z" style="fill: rgb(240, 240, 240); transform-origin: 85.1845px 202.874px;" id="el0mtayqn8tcgb" class="animable"></path><path d="M69.21,185.48a.34.34,0,0,0,.26-.57c-3.44-3.56-20.95-21.16-26.25-17.2C35.55,173.44,57.31,184.54,69.21,185.48Z" style="fill: rgb(245, 245, 245); transform-origin: 55.5899px 176.307px;" id="elqd3l7n92dlh" class="animable"></path><path d="M75.39,202.12a.37.37,0,0,0,.12-.69c-4.79-2.85-29-16.81-33.57-11C35.29,199,62.19,204.61,75.39,202.12Z" style="fill: rgb(245, 245, 245); transform-origin: 58.3011px 195.872px;" id="elpr2mqhtzu79" class="animable"></path><path d="M86.91,223a.37.37,0,0,0-.09-.69c-5.41-1.33-32.62-7.65-35.31-.71C47.63,231.66,75,229.23,86.91,223Z" style="fill: rgb(245, 245, 245); transform-origin: 69.1234px 223.409px;" id="elsi2m70qp6c" class="animable"></path><path d="M64.21,166a.44.44,0,0,0,.81-.15c1.14-6.43,6.43-38.73-1.89-41.34C51.08,120.7,56,152.52,64.21,166Z" style="fill: rgb(245, 245, 245); transform-origin: 61.8189px 145.204px;" id="elowlzrevsuac" class="animable"></path><path d="M407.65,222.71a.37.37,0,0,0,.52-.47c-2.05-5.18-12.71-31-19.92-29.16C377.81,195.75,395.68,216.63,407.65,222.71Z" style="fill: rgb(245, 245, 245); transform-origin: 396.651px 207.872px;" id="elnctg7y5xncq" class="animable"></path><path d="M425.59,185.33a.34.34,0,0,0,.5-.38c-1.45-4.74-9-28.37-15.57-27.26C401.08,159.31,415.43,179.09,425.59,185.33Z" style="fill: rgb(245, 245, 245); transform-origin: 416.771px 171.514px;" id="eldal6tnvo52l" class="animable"></path><path d="M419.05,202.05a.38.38,0,0,0,.5-.5c-2.35-5.05-14.43-30.24-21.53-28C387.75,176.8,406.76,196.65,419.05,202.05Z" style="fill: rgb(245, 245, 245); transform-origin: 407.333px 187.745px;" id="eleaot9b9za4l" class="animable"></path><path d="M387.31,247.72a1.08,1.08,0,0,0,.16.3,1,1,0,0,0,1.36.18c8-6.14,15.32-14.7,21.72-25.44a162.08,162.08,0,0,0,13.51-29.63A211.83,211.83,0,0,0,433,158.26a1,1,0,1,0-1.92-.28,210.06,210.06,0,0,1-8.84,34.55c-6,17.2-16.84,40.55-34.57,54.13A1,1,0,0,0,387.31,247.72Z" style="fill: rgb(240, 240, 240); transform-origin: 410.175px 202.634px;" id="eloch9aig03ii" class="animable"></path><path d="M426.1,185.48a.34.34,0,0,1-.27-.57c3.44-3.56,20.95-21.16,26.25-17.2C459.75,173.44,438,184.54,426.1,185.48Z" style="fill: rgb(245, 245, 245); transform-origin: 439.71px 176.307px;" id="eltd2okoxtf9i" class="animable"></path><path d="M419.92,202.12a.37.37,0,0,1-.13-.69c4.79-2.85,29-16.81,33.58-11C460,199,433.11,204.61,419.92,202.12Z" style="fill: rgb(245, 245, 245); transform-origin: 437.002px 195.872px;" id="elhjrnh2o5et9" class="animable"></path><path d="M408.4,223a.37.37,0,0,1,.08-.69c5.41-1.33,32.62-7.65,35.31-.71C447.68,231.66,420.3,229.23,408.4,223Z" style="fill: rgb(245, 245, 245); transform-origin: 426.181px 223.409px;" id="ellnj8icj0l4e" class="animable"></path><path d="M431.09,166a.44.44,0,0,1-.81-.15c-1.14-6.43-6.42-38.73,1.9-41.34C444.22,120.7,439.27,152.52,431.09,166Z" style="fill: rgb(245, 245, 245); transform-origin: 433.48px 145.204px;" id="el4erggotheio" class="animable"></path><path d="M444.6,107.13c-1.91-4.44-6.71-12.73-16.62-15-9.08-2.07-15.93,9.4-21.56,10.24s-5-1.69-16.26-5.91c-9.62-3.61-16.07,5.78-18.35,10.67Z" style="fill: rgb(245, 245, 245); transform-origin: 408.205px 99.5053px;" id="elj3a7f8322km" class="animable"></path><path d="M154.9,102.27s0-10.1-9.92-10.52c-4.74-.21-10.54,3.68-14.19-2.46-4.25-7.13-11.69-11.38-18.38-8.62-7.39,3-11.58,14.73-18.79,13.77s-21-5.76-28.11,7.83Z" style="fill: rgb(245, 245, 245); transform-origin: 110.205px 91.0452px;" id="elh7u6t9lt63l" class="animable"></path></g><g id="freepik--Character--inject-2" class="animable animator-active" style="transform-origin: 250px 264.81px;"><path d="M250,430.11c-91.15,0-165.3-74.16-165.3-165.3S158.85,99.51,250,99.51s165.3,74.15,165.3,165.3S341.15,430.11,250,430.11Zm0-327.84c-89.62,0-162.54,72.91-162.54,162.54S160.38,427.34,250,427.34s162.54-72.91,162.54-162.53S339.62,102.27,250,102.27Z" style="fill: rgb(38, 50, 56); transform-origin: 250px 264.81px;" id="el54x02fprhbc" class="animable"></path><path d="M368.82,142.65a9,9,0,0,0-5.52,1.9c1.15,1.07,2.27,2.16,3.38,3.27a4.32,4.32,0,0,1,2.14-.56,4.38,4.38,0,0,1,4.38,4.38,4.32,4.32,0,0,1-.67,2.33,4.41,4.41,0,0,1-2.14,1.76,4.29,4.29,0,0,1-1.57.29,4.39,4.39,0,0,1-4-6.15c-1.11-1.11-2.25-2.22-3.41-3.3a9,9,0,0,0,12.13,12.72,9.05,9.05,0,0,0,4.28-7.65A9,9,0,0,0,368.82,142.65Z" style="fill: rgb(64, 123, 255); transform-origin: 368.85px 151.62px;" id="elgahi4a0lsp" class="animable"></path><path d="M138.67,146.5a9.39,9.39,0,0,0-1.92-2,9,9,0,0,0-14.44,7.15,8.9,8.9,0,0,0,2.11,5.78c1-1.2,2.07-2.38,3.12-3.54a4.26,4.26,0,0,1-.62-2.24,4.38,4.38,0,0,1,8.35-1.85,4.25,4.25,0,0,1,.41,1.85A4.38,4.38,0,0,1,131.3,156a4.54,4.54,0,0,1-1.66-.32q-1.59,1.76-3.13,3.55a9,9,0,0,0,12.16-12.75Z" style="fill: rgb(64, 123, 255); transform-origin: 131.284px 151.627px;" id="elwrd222rauer" class="animable"></path><path d="M139.73,384.09a8.9,8.9,0,0,0,1.48-4.94,9,9,0,0,0-13.71-7.64,8.68,8.68,0,0,0-2.1,1.81,8.85,8.85,0,0,0-2.17,5.83,9,9,0,0,0,14.64,7c-1.15-1-2.29-2.13-3.4-3.23a4.38,4.38,0,0,1-6.63-3.77,4.36,4.36,0,0,1,2.85-4.1,4.56,4.56,0,0,1,1.53-.28,4.39,4.39,0,0,1,4.06,6C137.42,381.93,138.56,383,139.73,384.09Z" style="fill: rgb(64, 123, 255); transform-origin: 132.22px 379.158px;" id="elmh8u3mso4vq" class="animable"></path><path d="M374.62,373.29a8.63,8.63,0,0,0-2.06-1.84,8.9,8.9,0,0,0-4.89-1.46,9,9,0,0,0-7.4,14.1q1.74-1.6,3.43-3.25a4.26,4.26,0,0,1-.42-1.85,4.39,4.39,0,0,1,4.39-4.39,4.34,4.34,0,0,1,3.8,2.2,4.38,4.38,0,0,1-3.8,6.56,4.31,4.31,0,0,1-2.06-.51c-1.13,1.1-2.27,2.19-3.42,3.25a8.9,8.9,0,0,0,5.48,1.87,9,9,0,0,0,6.95-14.68Z" style="fill: rgb(64, 123, 255); transform-origin: 367.662px 378.98px;" id="elolyl03j8qj" class="animable"></path><path d="M250,421C163.86,421,93.78,351,93.78,264.81S163.86,108.59,250,108.59s156.22,70.08,156.22,156.22S336.14,421,250,421Zm0-232a75.8,75.8,0,1,0,75.79,75.8A75.88,75.88,0,0,0,250,189Z" style="fill: rgb(64, 123, 255); transform-origin: 250px 264.795px;" id="elb7cy3nyun5i" class="animable"></path><g id="elzvvx0fg991e"><path d="M250,421C163.86,421,93.78,351,93.78,264.81S163.86,108.59,250,108.59s156.22,70.08,156.22,156.22S336.14,421,250,421Zm0-232a75.8,75.8,0,1,0,75.79,75.8A75.88,75.88,0,0,0,250,189Z" style="fill: rgb(255, 255, 255); opacity: 0.9; transform-origin: 250px 264.795px;" class="animable"></path></g><path d="M220.13,195.16a76.13,76.13,0,0,0-41.93,45.35l-69.77-41.72A157.22,157.22,0,0,1,172.86,129Z" style="fill: rgb(64, 123, 255); transform-origin: 164.28px 184.755px;" id="elyzb0f3tlo5" class="animable"></path><path d="M228.37,337.45l-41.91,70.06a157.23,157.23,0,0,1-70.8-63.05l65.91-47.1A76,76,0,0,0,228.37,337.45Z" style="fill: rgb(64, 123, 255); transform-origin: 172.015px 352.435px;" id="elqu2jh6v38j" class="animable"></path><path d="M390.48,196.5l-69.55,41.6a76.18,76.18,0,0,0-44.87-44.47l47.58-66.57A157.26,157.26,0,0,1,390.48,196.5Z" style="fill: rgb(64, 123, 255); transform-origin: 333.27px 182.58px;" id="el92146992uuc" class="animable"></path><path d="M384,345a157.2,157.2,0,0,1-71.34,62.89l-42-70.18A76.11,76.11,0,0,0,318.15,298Z" style="fill: rgb(64, 123, 255); transform-origin: 327.33px 352.945px;" id="el7gdz2ie0zcp" class="animable"></path><g id="elwfd22zbukei"><path d="M220.13,195.16a76.13,76.13,0,0,0-41.93,45.35l-69.77-41.72A157.22,157.22,0,0,1,172.86,129Z" style="opacity: 0.2; transform-origin: 164.28px 184.755px;" class="animable"></path></g><g id="elmedn60ko5vi"><path d="M228.37,337.45l-41.91,70.06a157.23,157.23,0,0,1-70.8-63.05l65.91-47.1A76,76,0,0,0,228.37,337.45Z" style="opacity: 0.2; transform-origin: 172.015px 352.435px;" class="animable"></path></g><g id="elo0f8begbdcn"><path d="M390.48,196.5l-69.55,41.6a76.18,76.18,0,0,0-44.87-44.47l47.58-66.57A157.26,157.26,0,0,1,390.48,196.5Z" style="opacity: 0.2; transform-origin: 333.27px 182.58px;" class="animable"></path></g><g id="eljopshznq4dc"><path d="M384,345a157.2,157.2,0,0,1-71.34,62.89l-42-70.18A76.11,76.11,0,0,0,318.15,298Z" style="opacity: 0.2; transform-origin: 327.33px 352.945px;" class="animable"></path></g><g id="el3srl5sat1au"><path d="M250,171a93.8,93.8,0,1,0,93.79,93.8A93.9,93.9,0,0,0,250,171Zm0,169.59a75.8,75.8,0,1,1,75.79-75.79A75.88,75.88,0,0,1,250,340.6ZM250,171a93.8,93.8,0,1,0,93.79,93.8A93.9,93.9,0,0,0,250,171Zm0,169.59a75.8,75.8,0,1,1,75.79-75.79A75.88,75.88,0,0,1,250,340.6ZM250,171a93.8,93.8,0,1,0,93.79,93.8A93.9,93.9,0,0,0,250,171Zm0,169.59a75.8,75.8,0,1,1,75.79-75.79A75.88,75.88,0,0,1,250,340.6Z" style="opacity: 0.2; transform-origin: 249.99px 264.8px;" class="animable"></path></g><g id="elnbdqzmzs7j9"><path d="M243.49,259.22s-4.36-2.73-5.89-.21-1.53,11.33,5.24,9a4.76,4.76,0,0,0,4.22.65c2.77-.65,5.32-9.33,1.75-10.34S243.49,259.22,243.49,259.22Z" style="opacity: 0.4; transform-origin: 243.668px 263.416px;" class="animable"></path></g><path d="M318.28,274.8c0,1,0,2,0,3.05,0,.48,0,.94,0,1.43s0,.89,0,1.35V281c0,.42,0,.85,0,1.25s0,.84,0,1.25v0c0,.61,0,1.22,0,1.84l0,1.69v.14c0,.55,0,1.11,0,1.66,0,1.72.06,3.42.11,5.13h0c0,1,.05,2,.07,3a75.74,75.74,0,0,1-126.67,16.43c1-19.76,2-36,3.13-48.23.12-1.21.23-2.38.35-3.5.38-3.84.79-7.23,1.2-10.17h0a65.49,65.49,0,0,1,1.95-9.54,18.14,18.14,0,0,1,1.4-3.37,15.37,15.37,0,0,1,.93-1.54,17.61,17.61,0,0,1,2.29-2.74c.15-.15.31-.32.48-.47l.89-.77h0a16.47,16.47,0,0,1,3-1.94c1.12-.59,2.39-1.19,3.8-1.78.34-.15.67-.29,1-.43.52-.22,1.07-.43,1.63-.63s1.16-.43,1.78-.64l1.71-.55a74.78,74.78,0,0,1,10.54-2.35c1.29-.19,2.67-.37,4.11-.53h0c.92-.1,1.88-.21,2.85-.3l3-.28,1.19-.11c1.74-.15,3.54-.27,5.37-.39l1.7-.1,3.25-.17,2-.09c.45,0,.88-.05,1.32-.06s.74-.05,1.11-.06c3.88-.16,7.8-.27,11.61-.35h.18l2,0,1.91,0h.91l1.85,0h1.8c1.93,0,3.82,0,5.61,0,2.3,0,4.63,0,6.92.13h0c3.58.14,7.12.35,10.49.63l4.06.34.36,0c.94.09,1.87.17,2.77.27a15.44,15.44,0,0,1,7,2.46l.15.12a1.09,1.09,0,0,1,.17.13l.35.23a17.12,17.12,0,0,1,1.89,1.63,18.05,18.05,0,0,1,5,13.46c0,.27,0,.53,0,.79-.28,6.32-.45,12.67-.54,19-.06,3.62-.1,7.23-.1,10.85Z" style="fill: rgb(64, 123, 255); transform-origin: 255.308px 281.419px;" id="el4dkygvl3iax" class="animable"></path><g id="ellfzdgeuculq"><path d="M318.28,272.32v2.48c0,1,0,2,0,3.05,0,.48,0,.94,0,1.43s0,.89,0,1.35V281c0,.42,0,.85,0,1.25s0,.85,0,1.28v0c0,.59,0,1.21,0,1.81l0,1.69v.14c0,.55,0,1.11,0,1.66,0,1.72.06,3.42.11,5.13h0c0,1,.05,2,.07,3l-.54,1.13a74.78,74.78,0,0,1-5.13,8.86,75.71,75.71,0,0,1-121,6.44c1-19.76,2-36,3.13-48.23.12-1.21.23-2.38.35-3.5.38-3.84.79-7.23,1.2-10.17h0a65.49,65.49,0,0,1,1.95-9.54,18.14,18.14,0,0,1,1.4-3.37c.3-.52.6-1,.93-1.54a17.61,17.61,0,0,1,2.29-2.74c.15-.15.31-.32.48-.47l.89-.77h0a18.19,18.19,0,0,1,3-1.93c1.12-.59,2.39-1.19,3.8-1.79.34-.15.67-.29,1-.43.52-.22,1.07-.43,1.63-.63l1.74-.6h0c.54-.19,1.12-.38,1.71-.56a74.78,74.78,0,0,1,10.54-2.35c1.29-.2,2.68-.38,4.13-.54L235,224l3-.27c3.63-.31,7.52-.57,11.51-.78l2-.09c4.67-.21,9.44-.36,14-.45h0l4.07-.06h0c.32,0,.63,0,.93,0l3.64,0h0c1.93,0,3.82,0,5.61,0,2.32,0,4.65.06,7,.15h0c3.57.12,7.09.34,10.46.6l4.06.34.36,0,2.77.29a15.24,15.24,0,0,1,7,2.45l.17.11a1.09,1.09,0,0,1,.17.13l.35.23a17.12,17.12,0,0,1,1.89,1.63,18.05,18.05,0,0,1,5,13.46c0,.27,0,.53,0,.79-.28,6.32-.45,12.67-.54,19C318.32,265.09,318.28,268.7,318.28,272.32Z" style="fill: rgb(255, 255, 255); opacity: 0.6; transform-origin: 255.403px 281.446px;" class="animable"></path></g><g id="elnz1okpgmjnb"><path d="M318.06,298.15a74.78,74.78,0,0,1-5.13,8.86l-15.3-37Z" style="opacity: 0.2; transform-origin: 307.845px 288.51px;" class="animable"></path></g><path d="M274.21,222.84c-.07.78-.18,1.6-.32,2.44-.07.39-.15.81-.23,1.23a48.19,48.19,0,0,1-1.41,5.22c-.18.55-.36,1.09-.56,1.65s-.31.85-.49,1.28a68,68,0,0,1-3.2,7.09c-.22.44-.46.87-.69,1.3a72.94,72.94,0,0,1-4.54,7.27c-.32.44-.64.88-1,1.31A50.33,50.33,0,0,1,255,259c-.52.47-1,.91-1.58,1.33-4.35,3.45-9.06,5.49-13.8,5.18-3.09-.2-5.2-2.12-6.62-5.05-.18-.39-.36-.79-.52-1.21a29.05,29.05,0,0,1-1.62-7c-.06-.4-.09-.81-.14-1.2a66.94,66.94,0,0,1-.29-6.86c0-.39,0-.78,0-1.18.05-2.3.16-4.6.34-6.76q0-.6.09-1.17c.07-.73.13-1.44.21-2.13.16-1.68.35-3.22.54-4.58.06-.39.1-.79.16-1.15.13-.93.26-1.75.36-2.41,10.93-1.27,25.71-1.83,38.4-2Z" style="fill: rgb(255, 255, 255); transform-origin: 252.319px 244.175px;" id="elen61na7sc29" class="animable"></path><path d="M274.21,222.24v0l-.06.57c-.07.59-.15,1.21-.26,1.84-.07.39-.15.81-.23,1.23a46,46,0,0,1-1.41,5.22,17.92,17.92,0,0,1-5.47,3.94c-.55.28-1.13.53-1.73.78a45.73,45.73,0,0,1-20.37,2.9,24.53,24.53,0,0,1-6.11-1.27,17.66,17.66,0,0,1-5.79-3.09,7,7,0,0,1-1.62-1.9.41.41,0,0,0,0-.09c.17-1.68.35-3.21.54-4.58.06-.39.11-.79.16-1.15.13-.92.26-1.72.36-2.39v0q2.79-.33,5.86-.58c8.46-.74,18.31-1.13,27.53-1.32h.17l3.94-.07h2.75Z" style="fill: rgb(206, 122, 99); transform-origin: 252.685px 230.564px;" id="eltm6126910te" class="animable"></path><path d="M268,241.75c-.22.44-.46.87-.69,1.3a136.54,136.54,0,0,1-23.2,2.14,93,93,0,0,1-13.65-.95c0-.39,0-.78,0-1.18Q246.87,245.51,268,241.75Z" style="fill: rgb(38, 50, 56); transform-origin: 249.23px 243.47px;" id="elg53d5o1nhb7" class="animable"></path><path d="M262.77,250.32c-.32.44-.64.88-1,1.31a130.46,130.46,0,0,1-18.62,1.43,94.7,94.7,0,0,1-12.28-.76c-.06-.4-.09-.81-.14-1.2C240.24,252.37,251,252.11,262.77,250.32Z" style="fill: rgb(38, 50, 56); transform-origin: 246.75px 251.69px;" id="elulo61f2wwyg" class="animable"></path><path d="M255,259c-.52.47-1,.91-1.58,1.33-3.89.36-7.63.55-11.24.55q-4.76,0-9.18-.42c-.18-.39-.36-.79-.52-1.21A110.84,110.84,0,0,0,255,259Z" style="fill: rgb(38, 50, 56); transform-origin: 243.74px 259.94px;" id="elwsijfznek99" class="animable"></path><path d="M244,135a34.14,34.14,0,0,1,26.1,7.78c4.68,4,8.31,9.37,6.7,15.72-3.77,14.81-13.77,38.73-13.77,38.73l-44.88-34.52s-.23-14.39,7-21.53C229,137.48,237.09,135.79,244,135Z" style="fill: rgb(38, 50, 56); transform-origin: 247.669px 165.991px;" id="eldjdshgg3xva" class="animable"></path><path d="M276.6,173.4l-.19.37c-.06.13-.12.27-.19.39a41.07,41.07,0,0,1-4.49,7.31,33.93,33.93,0,0,0-1.41,6.51,14,14,0,0,0,.6,6.69,2.57,2.57,0,0,1-2.24,3.53,8.12,8.12,0,0,1-1.4,0,14.7,14.7,0,0,0,.13,2,2.62,2.62,0,0,1-3.64,2.8l-.63-.29a15.93,15.93,0,0,1-2.41-1.51,12.27,12.27,0,0,1-1.52-1.32c-1-.43-2.36-2.18-4-4.81-1.17-1.87-2.47-4.17-3.84-6.79-3.24-6.13-6.91-13.93-10.33-21.52l-.6-1.34c-2.22-5-4.32-9.78-6.11-13.93-.21-.51-.43-1-.64-1.5q-.81-1.89-1.5-3.54l-.38-.91c-.15-.32-.28-.65-.4-.95l-.4-.92c-.17-.42-.34-.82-.5-1.19s-.2-.5-.3-.73c-.23-.54-.42-1-.59-1.41a.3.3,0,0,0,0-.1c-.1-.23-.18-.43-.25-.6s-.1-.26-.15-.36l-.23-.57.34-.18.37-.17c.35-.17.83-.39,1.42-.62.31-.13.65-.27,1-.4a41.51,41.51,0,0,1,7.75-2,40.57,40.57,0,0,1,9-.45,39.14,39.14,0,0,1,21.25,8,28,28,0,0,1,3.07,2.61,22.74,22.74,0,0,1,3.36,4.13C281.83,157.83,279.54,167,276.6,173.4Z" style="fill: rgb(38, 50, 56); transform-origin: 254.351px 169.017px;" id="elch3smtpil8h" class="animable"></path><path d="M266.09,225.06a6.39,6.39,0,0,1-.56,1.28,13.83,13.83,0,0,1-4.65,5,25.87,25.87,0,0,1-9,3.81c-4.43.93-11.7,1.36-14.38-2.9.06-3,.53-5.83.55-7.07,0-.32,0-.63,0-1s0-.38,0-.57v0c0-1.3,0-2.64,0-3.92l-1.09-8-.13-1c0-.07,0-.11,0-.18v0L252.88,197l2.33-2,2.38-2,4.16-3.51,2.22-1.88c-.16.89-.3,1.78-.41,2.7a63.83,63.83,0,0,0-.49,6.91V198c0,1.51,0,3.06.07,4.64a136.52,136.52,0,0,0,2.42,19.68v0c0,.19.08.38.11.56C265.8,223.65,266,224.36,266.09,225.06Z" style="fill: rgb(206, 122, 99); transform-origin: 251.46px 211.687px;" id="elxphydge6d0g" class="animable"></path><g id="el803xulv35nl"><g style="opacity: 0.2; transform-origin: 244.7px 209.57px;" class="animable"><path d="M236.82,210.79l1.23,9C243.71,218,250,213.4,252,207.85c1.41-4,0-8.09-1.61-8.5Z" id="el4o1g0rxyyxh" class="animable" style="transform-origin: 244.7px 209.57px;"></path></g></g><path d="M217.37,189.91q.42,2.94,1,5.8c3.41,16.88,23.23,20.81,37.14,10.41,0,0,0-.05.05-.05A29.38,29.38,0,0,0,259.1,203c9.19-9.42,8.19-17.66,9.24-35.95s-16.95-32-34.54-24.74C217.56,149,214.6,170.39,217.37,189.91Z" style="fill: rgb(206, 122, 99); transform-origin: 242.418px 176.089px;" id="el5sp8i32s0gv" class="animable"></path><path d="M216.84,185.42s-1.79,14.91,2.66,23.25c3.81,7.13,15.27,10.2,25.1,5.75s10.1-8.18,12.08-17.17a173.45,173.45,0,0,0,2.88-18.8l-4.6.37s-.88,8.68-8.13,7.85-10.77-1.48-17.64,1C229.19,187.64,222.44,183.67,216.84,185.42Z" style="fill: rgb(38, 50, 56); transform-origin: 238.022px 197.473px;" id="elt6abl8clit" class="animable"></path><path d="M227,192.67a63,63,0,0,0,13.19-1.55,9,9,0,0,1-6.68,5.79C228.32,197.9,227,192.67,227,192.67Z" style="fill: rgb(255, 255, 255); transform-origin: 233.595px 194.077px;" id="elfsa5zpbgyec" class="animable"></path><path d="M243,174.79c0,1.47-.75,2.68-1.71,2.69s-1.76-1.17-1.78-2.64.74-2.68,1.71-2.7,1.76,1.17,1.78,2.65Z" style="fill: rgb(38, 50, 56); transform-origin: 241.255px 174.81px;" id="elfj2waqkhd1o" class="animable"></path><path d="M226.94,175c0,1.47-.75,2.68-1.71,2.69s-1.76-1.17-1.78-2.64.74-2.68,1.71-2.7,1.76,1.17,1.78,2.65Z" style="fill: rgb(38, 50, 56); transform-origin: 225.195px 175.02px;" id="ele6v6bbylyvf" class="animable"></path><path d="M268.33,168.72s-4.55,3.39-5.5,8c-.28,1.38-1.24,1.54-1.24,1.54l-6.63.54s-.15-10.38,2.82-14.08c2-2.46-9.43-11.51-14-13.27-8.55-3.3-20-1-23.71,4.11,0,0,3.22-10.58,12.59-15.32s26.89-3.78,32.84,5.64S268.33,168.72,268.33,168.72Z" style="fill: rgb(38, 50, 56); transform-origin: 244.609px 158.129px;" id="elq0aaqh02daf" class="animable"></path><path d="M276.24,179.16a17.38,17.38,0,0,1-5.92,8.82,16.85,16.85,0,0,1-2.38,1.57,8.32,8.32,0,0,1-1.58.66,2.92,2.92,0,0,1-.49.12,5,5,0,0,1-2.31,0,4.65,4.65,0,0,1-1.81-.82c-1.93-1.38-3-4.14-2.85-7.3a18.94,18.94,0,0,1,.66-3.77c1.22-4.52,4.13-9.26,8.69-9.72a.11.11,0,0,1,.08,0,8,8,0,0,1,2.42.14,6.9,6.9,0,0,1,2.61,1.18,7.34,7.34,0,0,1,2.57,3.28,6.08,6.08,0,0,1,.29.85A9,9,0,0,1,276.24,179.16Z" style="fill: rgb(206, 122, 99); transform-origin: 267.734px 179.575px;" id="eliaejoj4zimi" class="animable"></path><path d="M219.34,169.07a.7.7,0,0,0,.63-.37,3.82,3.82,0,0,1,2.25-2,4.35,4.35,0,0,1,3,.44.73.73,0,0,0,.74-1.25,5.75,5.75,0,0,0-4.08-.59A5.19,5.19,0,0,0,218.7,168a.73.73,0,0,0,.29,1A.63.63,0,0,0,219.34,169.07Z" style="fill: rgb(38, 50, 56); transform-origin: 222.432px 167.115px;" id="els3z0ts1s9f" class="animable"></path><path d="M247.8,168.49a.72.72,0,0,0,.58-1.08,5.81,5.81,0,0,0-3.25-2.53,5.19,5.19,0,0,0-4,.76.73.73,0,0,0-.24,1,.72.72,0,0,0,1,.25,3.73,3.73,0,0,1,2.92-.6,4.38,4.38,0,0,1,2.37,1.84A.72.72,0,0,0,247.8,168.49Z" style="fill: rgb(38, 50, 56); transform-origin: 244.631px 166.625px;" id="el52qke15ppw" class="animable"></path><path d="M230.47,173.39a16.12,16.12,0,0,1-4.77,7.87c-3.72,3.16,3.65,5.91,3.65,5.91Z" style="fill: rgb(186, 77, 60); transform-origin: 227.561px 180.28px;" id="elkxsq52m801" class="animable"></path><path d="M217.55,226.74h0l0,.41h0L216.22,244l-.15,1.88-1.31,17-3,.41a.08.08,0,0,1-.07,0c-5,.67-10,1.23-15.05,1.71-.52.06-1,.1-1.57.15h0c-1,.11-2,.2-3.09.27h-.07l-1.54.13q-4.5.36-9,.62c-3,.19-5.9.35-8.87.46l-6.1.22c-4,.16-7.95.23-12,.23-2.09,0-4.18,0-6.29-.07a.24.24,0,0,1-.12,0q-3.22-.07-6.52-.21c-2.15-.11-4.34-.24-6.64-.45-1.43-.13-2.89-.27-4.47-.47-1-.13-2-.28-3-.48l-.56-.11c-.56-.1-1.17-.22-1.82-.38l-.32-.08c-.46-.11-.94-.24-1.47-.39l-.84-.25-.47-.15-.48-.18-.54-.2-.56-.23-.66-.28c-.29-.13-.7-.33-1.1-.54l-.37-.21-.24-.12-.23-.13a4.56,4.56,0,0,1-.46-.27l-.24-.15-.81-.55-.55-.41c-.09-.07-.21-.15-.31-.24s-.24-.2-.34-.29l-.34-.28a1.14,1.14,0,0,0-.16-.14c-.16-.14-.33-.29-.5-.47a1.57,1.57,0,0,0-.19-.18l-.21-.21c-.24-.27-.51-.55-.74-.84l-.38-.44-.43-.56a15.77,15.77,0,0,1-1.36-2.23l-.21-.42-.1-.21q-.15-.32-.27-.63c-.12-.28-.24-.55-.34-.83a12.11,12.11,0,0,1-.42-1.41c-.06-.22-.13-.46-.17-.69s-.05-.23-.07-.35l-.06-.35a1.67,1.67,0,0,1-.06-.29c0-.28-.07-.51-.11-.78a15.64,15.64,0,0,1-.1-1.91c0-.26,0-.53,0-.79s0-.26,0-.39,0-.23,0-.34c0-.39.08-.78.13-1.17,0-.23.07-.4.1-.56s0-.26.08-.4c.06-.32.12-.59.18-.84s.13-.45.2-.69a9.69,9.69,0,0,1,.37-1.18l.35-1a26,26,0,0,1,1.28-2.73,42.21,42.21,0,0,1,2.22-3.71c1.44-2.12,2.8-3.91,4.15-5.66s2.71-3.39,4.09-5c2.73-3.21,5.45-6.29,8.26-9.3q6.22-6.76,12.68-13.16,2.13-2.14,4.32-4.26c5.41-5.3,10.88-10.5,16.47-15.58q3.36-3,6.76-6l3.43-3c2.66-2.27,5.34-4.53,8.05-6.74l1.26-1,9.89,8.55,0,0,0,0s0,0,0,0a.35.35,0,0,0,0,.08l-.27.42c-.16.26-.35.56-.53.83l-.2.31-.09.14-.21.33-.16.24c-6.42,9.85-14.2,19.65-21.18,29.27-1.75,2.4-3.45,4.79-5.06,7.17l-13.15,19.6-1.17,1.78,6.74-.47c2.27-.17,4.53-.34,6.81-.49,15.1-1.21,36.39-3.87,51.89-4.67Z" style="fill: rgb(64, 123, 255); transform-origin: 163.16px 215.3px;" id="elchehvwdmm6f" class="animable"></path><g id="el1q1amojp2ia"><path d="M217.55,226.75l0,.41h0L216.22,244l-.15,1.88-1.31,17h0c-1,.14-2,.28-3,.4a.08.08,0,0,1-.07,0q-7.53,1-15.05,1.71c-.52.06-1,.1-1.57.15h0c-1,.11-2,.2-3.09.27h-.07l-1.54.13q-4.5.36-9,.62t-8.87.46l-6.1.22c-4,.16-7.95.23-12,.23-2.09,0-4.18,0-6.29-.07a.24.24,0,0,1-.12,0q-3.22-.06-6.53-.2c-2.14-.11-4.33-.25-6.63-.45-1.43-.12-2.89-.26-4.47-.48-1-.13-2-.28-3-.48l-.56-.11c-.56-.1-1.17-.22-1.82-.38l-.32-.08c-.46-.11-.94-.24-1.47-.39l-.84-.25-.47-.15-.48-.18-.54-.2-.56-.23-.66-.28c-.29-.13-.7-.33-1.1-.54a3.37,3.37,0,0,1-.38-.19l-.23-.14-.23-.13a4.56,4.56,0,0,1-.46-.27l-.24-.15c-.25-.15-.5-.32-.81-.54l-.55-.4-.31-.26-.34-.28c-.12-.09-.22-.19-.34-.29a1.14,1.14,0,0,0-.16-.14c-.16-.14-.33-.29-.5-.47a1.57,1.57,0,0,0-.19-.18l-.21-.21c-.24-.27-.51-.55-.74-.84l-.38-.44-.43-.56a15.77,15.77,0,0,1-1.36-2.23c-.07-.13-.15-.27-.22-.42l-.09-.21q-.15-.32-.27-.63c-.12-.28-.24-.55-.34-.83a12.11,12.11,0,0,1-.42-1.41c-.06-.22-.13-.46-.17-.69s-.05-.23-.07-.35,0-.23-.07-.34a1.71,1.71,0,0,1-.05-.3c0-.28-.07-.51-.11-.78a15.64,15.64,0,0,1-.1-1.91c0-.26,0-.53,0-.79s0-.26,0-.39,0-.23,0-.34c0-.39.08-.78.13-1.17,0-.23.07-.4.1-.56s0-.26.07-.4c.06-.32.13-.59.19-.84s.13-.45.2-.69a9.69,9.69,0,0,1,.37-1.18l.35-1a26,26,0,0,1,1.28-2.73,42.21,42.21,0,0,1,2.22-3.71c1.44-2.12,2.8-3.91,4.15-5.66s2.71-3.39,4.09-5c2.73-3.21,5.45-6.29,8.26-9.3q6.22-6.76,12.68-13.16c1.43-1.43,2.88-2.84,4.32-4.25,5.41-5.3,10.88-10.5,16.47-15.59q3.36-3,6.76-6l3.43-3c2.66-2.27,5.34-4.53,8.05-6.74l1.26-1,9.89,8.55,0,0s0,0,0,0h0s0,0,0,0a.35.35,0,0,0,0,.08l-.27.42c-.17.28-.35.55-.53.83l-.2.31-.09.14-.21.33-.16.24c-6.42,9.85-14.2,19.65-21.18,29.27-1.75,2.4-3.45,4.79-5.06,7.17l-13.15,19.6-1.17,1.78,6.74-.47q3.39-.26,6.8-.48c15.1-1.21,36.4-3.87,51.9-4.67Z" style="fill: rgb(255, 255, 255); opacity: 0.6; transform-origin: 163.16px 215.29px;" class="animable"></path></g><g id="elldqqiitn7np"><path d="M197,250.32l-1.46,11.22-.48,3.68h0c-1,.11-2,.2-3.09.27h-.07l4.71-13.94h0Z" style="opacity: 0.2; transform-origin: 194.45px 257.905px;" class="animable"></path></g><path d="M220,147.85a47.06,47.06,0,0,1-7.18,6.2c-4.18,3.15-8.48,6-8.48,6s-5.12,13.15-12.57,13.66a7.44,7.44,0,0,1-1.16,0c-5.84-.48-7.9-7.77-8.26-9.28,0-.17-.07-.28-.07-.28,2.75-1.79,5.93-3.73,9.21-5.63,8.29-4.8,17.2-9.33,21.17-10.39C220.73,146,222.94,144.19,220,147.85Z" style="fill: rgb(206, 122, 99); transform-origin: 201.761px 159.742px;" id="elga3i3gcgv8o" class="animable"></path><path d="M287.46,223a67.09,67.09,0,0,1-5.68,16.13c-2.81,5.62-6.88,11.59-12.64,15.94a55.37,55.37,0,0,1-16.08,8.52c-1.05.35-2,.64-3,.89s-1.62.39-2.35.56a31.9,31.9,0,0,1-6.29.76l0,0a4.75,4.75,0,0,0,.43-.27l.3-.18a63.71,63.71,0,0,0,6.15-4.59l1.46-1.26.22-.2a69.81,69.81,0,0,0,6.83-7c.35-.42.7-.85,1-1.29a58,58,0,0,0,4.92-7.21c.23-.42.48-.84.71-1.29a48.86,48.86,0,0,0,2.91-6.47c.12-.3.22-.62.33-.93a44.4,44.4,0,0,0,2.36-12.17,6.14,6.14,0,0,1,.5-.59h0a0,0,0,0,0,0,0c1-1,3.5-2.93,8.07-2.93a14.54,14.54,0,0,1,9,3l0,0A7.49,7.49,0,0,1,287.46,223Z" style="fill: rgb(64, 123, 255); transform-origin: 264.44px 242.61px;" id="elj9yd90m1y1m" class="animable"></path><path d="M232.17,224.28s-3-2-9.17-1.05-7.47,5.05-7.47,5.05-3.46,17,8.3,30.76c6.92,8.11,18.59,6.67,18.59,6.67S232,246.68,232.17,224.28Z" style="fill: rgb(64, 123, 255); transform-origin: 228.738px 244.391px;" id="elpdoa7eb3ls8" class="animable"></path><g id="el0ttug27g66d"><path d="M232.17,224.28s-3-2-9.17-1.05-7.47,5.05-7.47,5.05-3.46,17,8.3,30.76c6.92,8.11,18.59,6.67,18.59,6.67S232,246.68,232.17,224.28Z" style="opacity: 0.4; transform-origin: 228.738px 244.391px;" class="animable"></path></g><g id="elm7idi2cas0s"><path d="M287.46,223a67.09,67.09,0,0,1-5.68,16.13c-2.81,5.62-6.88,11.59-12.64,15.94a55.37,55.37,0,0,1-16.08,8.52c-1.05.35-2,.64-3,.89s-1.62.39-2.35.56a31.9,31.9,0,0,1-6.29.76l0,0a4.75,4.75,0,0,0,.43-.27l.3-.18a63.71,63.71,0,0,0,6.15-4.59l1.46-1.26.22-.2a69.81,69.81,0,0,0,6.83-7c.35-.42.7-.85,1-1.29a58,58,0,0,0,4.92-7.21c.23-.42.48-.84.71-1.29a48.86,48.86,0,0,0,2.91-6.47c.12-.3.22-.62.33-.93a44.4,44.4,0,0,0,2.36-12.17,6.14,6.14,0,0,1,.5-.59h0a0,0,0,0,0,0,0c1-1,3.5-2.93,8.07-2.93a14.54,14.54,0,0,1,9,3l0,0A7.49,7.49,0,0,1,287.46,223Z" style="opacity: 0.4; transform-origin: 264.44px 242.61px;" class="animable"></path></g><path d="M243.49,259.22s-4.36-2.73-5.89-.21-1.53,11.33,5.24,9a4.76,4.76,0,0,0,4.22.65c2.77-.65,5.32-9.33,1.75-10.34S243.49,259.22,243.49,259.22Z" style="fill: rgb(64, 123, 255); transform-origin: 243.668px 263.416px;" id="elpokoih481hm" class="animable"></path><g id="ellfee47k4ru"><path d="M243.49,259.22s-4.36-2.73-5.89-.21-1.53,11.33,5.24,9a4.76,4.76,0,0,0,4.22.65c2.77-.65,5.32-9.33,1.75-10.34S243.49,259.22,243.49,259.22Z" style="opacity: 0.4; transform-origin: 243.668px 263.416px;" class="animable"></path></g><path d="M239.05,263.77s-8.57-2.41-10.85,5-6.74,13.82-10,13.7c0,0,5.72,4.28,14.31-.39S239.05,263.77,239.05,263.77Z" style="fill: rgb(64, 123, 255); transform-origin: 228.732px 273.829px;" id="elwi6z29tdhpm" class="animable"></path><g id="elgvujpqx3fsp"><path d="M239.05,263.77s-8.57-2.41-10.85,5-6.74,13.82-10,13.7c0,0,5.72,4.28,14.31-.39S239.05,263.77,239.05,263.77Z" style="opacity: 0.4; transform-origin: 228.732px 273.829px;" class="animable"></path></g><path d="M247.87,263.77s8.57-2.41,10.84,5,6.74,13.82,10,13.7c0,0-5.73,4.28-14.32-.39S247.87,263.77,247.87,263.77Z" style="fill: rgb(64, 123, 255); transform-origin: 258.181px 273.829px;" id="elrt90mkztdto" class="animable"></path><g id="eley02s4qileh"><path d="M247.87,263.77s8.57-2.41,10.84,5,6.74,13.82,10,13.7c0,0-5.73,4.28-14.32-.39S247.87,263.77,247.87,263.77Z" style="opacity: 0.4; transform-origin: 258.181px 273.829px;" class="animable"></path></g><path d="M283.83,302.8a6.12,6.12,0,1,1-6.12-6.12A6.12,6.12,0,0,1,283.83,302.8Z" style="fill: rgb(64, 123, 255); transform-origin: 277.71px 302.8px;" id="ele108cb0f27s" class="animable"></path><g id="elatboxvyjmv"><path d="M283.83,302.8a6.12,6.12,0,1,1-6.12-6.12A6.12,6.12,0,0,1,283.83,302.8Z" style="fill: rgb(255, 255, 255); opacity: 0.5; transform-origin: 277.71px 302.8px;" class="animable"></path></g><g id="eluundnplmq1h"><polygon points="270.87 273.49 284.56 273.49 284.56 292.61 277.71 296.68 270.87 292.46 270.87 273.49" style="fill: rgb(255, 255, 255); opacity: 0.3; transform-origin: 277.715px 285.085px;" class="animable"></polygon></g><rect x="269.72" y="272.41" width="15.98" height="2.15" style="fill: rgb(255, 255, 255); transform-origin: 277.71px 273.485px;" id="elv2mm6tppzn" class="animable"></rect><rect x="269.72" y="272.41" width="15.98" height="2.15" style="fill: rgb(64, 123, 255); transform-origin: 277.71px 273.485px;" id="eldqihivivtt" class="animable"></rect><g id="el3inag9lqa22"><rect x="269.72" y="272.41" width="15.98" height="2.15" style="fill: rgb(255, 255, 255); opacity: 0.5; transform-origin: 277.71px 273.485px;" class="animable"></rect></g><path d="M230.47,131.62s9.41-5,14.21-5.68,23.44,5,27.52,8.85S278,150.1,278,150.1Z" style="fill: rgb(64, 123, 255); transform-origin: 254.235px 137.992px;" id="elsv6bc1azg1b" class="animable"></path><g id="elzl54wxq51j"><path d="M230.47,131.62s9.41-5,14.21-5.68,23.44,5,27.52,8.85S278,150.1,278,150.1Z" style="fill: rgb(255, 255, 255); opacity: 0.6; transform-origin: 254.235px 137.992px;" class="animable"></path></g><path d="M283.89,158.15,276.6,173.4l-.19.37-.48-.46c-.52-.49-1.5-1.37-2.83-2.5-.68-.59-1.48-1.25-2.35-2-.66-.53-1.39-1.09-2.14-1.67l-.27-.21a97,97,0,0,0-16.52-10.31,51.13,51.13,0,0,0-17.49-5.2,29.71,29.71,0,0,0-10,.75c-.84.22-1.67.48-2.48.78-.32.1-.63.23-.94.36-.63.25-1.24.54-1.85.84v-21s5-2.26,13.73-2.74h0A68.9,68.9,0,0,1,260,134.74c7.88,2.83,13.18,6.12,16.73,9.35a26.81,26.81,0,0,1,1.93,1.9C284.56,152.48,283.89,158.15,283.89,158.15Z" style="fill: rgb(64, 123, 255); transform-origin: 251.486px 152.057px;" id="elfm9axyurwpv" class="animable"></path><g id="elsm87dssi56p"><path d="M283.89,158.15,276.6,173.4l-.19.37-.48-.46c-.52-.49-1.5-1.37-2.83-2.5-.68-.59-1.48-1.25-2.35-2-.66-.53-1.39-1.09-2.14-1.67l-.27-.21a97,97,0,0,0-16.52-10.31,51.13,51.13,0,0,0-17.49-5.2,29.71,29.71,0,0,0-10,.75c-.84.22-1.67.48-2.48.78-.32.1-.63.23-.94.36-.63.25-1.24.54-1.85.84v-21s5-2.26,13.73-2.74h0A68.9,68.9,0,0,1,260,134.74c7.88,2.83,13.18,6.12,16.73,9.35a26.81,26.81,0,0,1,1.93,1.9C284.56,152.48,283.89,158.15,283.89,158.15Z" style="fill: rgb(255, 255, 255); opacity: 0.7; transform-origin: 251.486px 152.057px;" class="animable"></path></g><path d="M232.14,137.4h0a.13.13,0,0,0,0-.08,1.69,1.69,0,0,0-1.6-1.08,2,2,0,0,0-2,1.83,1.69,1.69,0,0,0,.12.75v0a1.29,1.29,0,0,0,.28.42,1.39,1.39,0,0,0,.4.36,2.19,2.19,0,0,0,.38.17h0a2.1,2.1,0,0,0,.52.08,2.84,2.84,0,0,0,.42-.05h0a2,2,0,0,0,1-.57,2,2,0,0,0,.56-1.19A1.66,1.66,0,0,0,232.14,137.4Zm-1.7-.1a.68.68,0,0,1,.64.41s0,0,0,0h0a.71.71,0,0,1,.05.29.82.82,0,0,1-.81.74.67.67,0,0,1-.67-.45h0a1.18,1.18,0,0,1,0-.27A.82.82,0,0,1,230.44,137.3Z" style="fill: rgb(64, 123, 255); transform-origin: 230.38px 138.045px;" id="elga6k7gwy1ef" class="animable"></path><polygon points="226.31 140.31 233.92 140.31 234 139.25 226.38 139.25 226.31 140.31" style="fill: rgb(64, 123, 255); transform-origin: 230.155px 139.78px;" id="elydgeom48yf" class="animable"></polygon><polygon points="229.19 145.92 230.27 145.92 230.69 139.78 229.61 139.78 229.19 145.92" style="fill: rgb(64, 123, 255); transform-origin: 229.94px 142.85px;" id="elbaske1xb8c" class="animable"></polygon><path d="M227.17,142.69c-.07.48-.13,1.48.7,1.73a3.77,3.77,0,0,1,1.88,1.24,4.53,4.53,0,0,1,2.05-1.24c.87-.26.95-1.25.93-1.73h1.09a2.68,2.68,0,0,1-1.78,2.75,3.35,3.35,0,0,0-1.65,1.06,1,1,0,0,1-.72.34.83.83,0,0,1-.68-.34,2.71,2.71,0,0,0-1.5-1.06,2.29,2.29,0,0,1-1.4-2.75Z" style="fill: rgb(64, 123, 255); transform-origin: 229.919px 144.765px;" id="eleb60dvvzjoe" class="animable"></path><path d="M265.41,322.8s-17.89,2.35-21.7,4.51-13,10.8-13,10.8c-.32.36,14.61,4.38,31,1.77Z" style="fill: rgb(206, 122, 99); transform-origin: 248.057px 331.778px;" id="el4d04qa1vwgr" class="animable"></path><path d="M363.63,332.44l.05,1v1.13c0,.63,0,1.21-.11,1.86a18.3,18.3,0,0,1-.85,3.9,18.75,18.75,0,0,1-3.81,6.59,20.31,20.31,0,0,1-4.3,3.63,24.34,24.34,0,0,1-3.57,1.83,29.72,29.72,0,0,1-2.95,1,36.26,36.26,0,0,1-4.84,1,59.67,59.67,0,0,1-7.83.43,123,123,0,0,1-13.46-.91c-4.28-.51-8.43-1.19-12.54-1.93-8.21-1.45-16.21-3.3-24.14-5.29s-15.71-4.22-23.57-6.78l3.68-17.08c15.64,1.46,31.53,3,46.89,3.59,3.84.16,7.65.22,11.34.2,1.9,0,3.78,0,5.59-.14-.61-1.28-1.26-2.57-1.92-3.88-1.7-3.32-3.52-6.69-5.39-10.05s-3.73-6.78-5.66-10.17l-5.85-10.19-11.82-20.45c-3.92-6.84-7.93-13.72-11.7-20.53l30.27-18.1C321.57,240,325.58,247,329.59,254l5.88,10.65q2.85,5.37,5.67,10.78c1.89,3.61,3.67,7.27,5.47,11s3.59,7.38,5.28,11.17,3.36,7.61,5,11.57,3.17,8,4.57,12.64a58.84,58.84,0,0,1,1.94,8.33c.07.41.13,1,.19,1.5C363.59,331.89,363.61,332.1,363.63,332.44Z" style="fill: rgb(64, 123, 255); transform-origin: 312.695px 293.957px;" id="ellchqpo1ccp" class="animable"></path><g id="el61zi5xbwk3q"><path d="M363.63,332.44l.05,1v1.13c0,.63,0,1.21-.11,1.86a18.3,18.3,0,0,1-.85,3.9,18.75,18.75,0,0,1-3.81,6.59,20.31,20.31,0,0,1-4.3,3.63,24.34,24.34,0,0,1-3.57,1.83,29.72,29.72,0,0,1-2.95,1,36.26,36.26,0,0,1-4.84,1,59.67,59.67,0,0,1-7.83.43,123,123,0,0,1-13.46-.91c-4.28-.51-8.43-1.19-12.54-1.93-8.21-1.45-16.21-3.3-24.14-5.29s-15.71-4.22-23.57-6.78l3.68-17.08c15.64,1.46,31.53,3,46.89,3.59,3.84.16,7.65.22,11.34.2,1.9,0,3.78,0,5.59-.14-.61-1.28-1.26-2.57-1.92-3.88-1.7-3.32-3.52-6.69-5.39-10.05s-3.73-6.78-5.66-10.17l-5.85-10.19-11.82-20.45c-3.92-6.84-7.93-13.72-11.7-20.53l30.27-18.1C321.57,240,325.58,247,329.59,254l5.88,10.65q2.85,5.37,5.67,10.78c1.89,3.61,3.67,7.27,5.47,11s3.59,7.38,5.28,11.17,3.36,7.61,5,11.57,3.17,8,4.57,12.64a58.84,58.84,0,0,1,1.94,8.33c.07.41.13,1,.19,1.5C363.59,331.89,363.61,332.1,363.63,332.44Z" style="fill: rgb(255, 255, 255); opacity: 0.6; transform-origin: 312.695px 293.957px;" class="animable"></path></g></g><g id="freepik--speech-bubble--inject-2" class="animable animator-hidden" style="transform-origin: 318.98px 102.265px;"><path d="M365.63,74.75V119a3.74,3.74,0,0,1-3.74,3.74H294l-13,10.79,5.63-10.79H276.06a3.74,3.74,0,0,1-3.73-3.74V74.75A3.73,3.73,0,0,1,276.06,71h85.83A3.73,3.73,0,0,1,365.63,74.75Z" style="fill: rgb(64, 123, 255); transform-origin: 318.98px 102.265px;" id="elaub8bhherof" class="animable"></path><g id="elvnenlxjbgnh"><path d="M365.63,74.75V119a3.74,3.74,0,0,1-3.74,3.74H294l-13,10.79,5.63-10.79H276.06a3.74,3.74,0,0,1-3.73-3.74V74.75A3.73,3.73,0,0,1,276.06,71h85.83A3.73,3.73,0,0,1,365.63,74.75Z" style="fill: rgb(255, 255, 255); opacity: 0.7; transform-origin: 318.98px 102.265px;" class="animable"></path></g></g><g id="freepik--Text--inject-2" class="animable animator-hidden" style="transform-origin: 318.5px 96.3545px;"><path d="M296.36,84.81h1.08L294.28,95h-1.12l-2.44-8.71L288.08,95,287,95l-2.88-10.21h1.08l2.39,9,2.65-9h1.12l2.42,9Z" style="fill: rgb(38, 50, 56); transform-origin: 290.78px 89.895px;" id="elzzlwhr3pq2" class="animable"></path><path d="M304.17,84.81v.84H300v3.81h3.71v.83H300v3.89h4.16V95H299V84.81Z" style="fill: rgb(38, 50, 56); transform-origin: 301.585px 89.905px;" id="el6sqdrp5m68v" class="animable"></path><path d="M306.17,84.81h1v9.4h3.71V95h-4.75Z" style="fill: rgb(38, 50, 56); transform-origin: 308.505px 89.905px;" id="elbb9u1ppcec" class="animable"></path><path d="M313.3,93.63a5.38,5.38,0,0,1,0-7.45A5.07,5.07,0,0,1,317,84.71a5.41,5.41,0,0,1,2.79.71,4.44,4.44,0,0,1,1.83,2.06h-1.25A3.29,3.29,0,0,0,319,86.1a4,4,0,0,0-2-.49A4,4,0,0,0,314,86.79,4.73,4.73,0,0,0,314,93,4,4,0,0,0,317,94.21a4,4,0,0,0,2-.5,3.37,3.37,0,0,0,1.36-1.39h1.25a4.44,4.44,0,0,1-1.83,2.06,5.41,5.41,0,0,1-2.79.71A5.06,5.06,0,0,1,313.3,93.63Z" style="fill: rgb(38, 50, 56); transform-origin: 316.711px 89.9001px;" id="el8ghkjtrnj7h" class="animable"></path><path d="M324.83,93.64a5.39,5.39,0,0,1,0-7.46,5.2,5.2,0,1,1,0,7.46Zm6.63-.61a4.73,4.73,0,0,0,0-6.24,4.3,4.3,0,0,0-5.92,0,4.75,4.75,0,0,0,0,6.24,4.26,4.26,0,0,0,5.91,0Z" style="fill: rgb(38, 50, 56); transform-origin: 328.492px 89.91px;" id="el3eae8s4yjk5" class="animable"></path><path d="M345.48,84.81V95h-1V87.16L340.73,95h-.6l-3.71-7.81V95h-1V84.81h1l4.1,8.7,4.08-8.7Z" style="fill: rgb(38, 50, 56); transform-origin: 340.45px 89.905px;" id="elm6f7tllbr1f" class="animable"></path><path d="M352.88,84.81v.84h-4.15v3.81h3.7v.83h-3.7v3.89h4.15V95h-5.19V84.81Z" style="fill: rgb(38, 50, 56); transform-origin: 350.285px 89.905px;" id="elfyiikpj3upw" class="animable"></path><path d="M294,106.33h-3.48l-.52,1.58H286.6l3.82-10.46h3.78L298,107.91h-3.46ZM292.3,101l-.95,2.91h1.89Z" style="fill: rgb(64, 123, 255); transform-origin: 292.3px 102.68px;" id="ely42x57m92" class="animable"></path><path d="M304.24,107.91h-5.48V97.45h5.33c2.08,0,3.43.9,3.43,2.72a2.31,2.31,0,0,1-1.76,2.37,2.5,2.5,0,0,1,2,2.5C307.75,106.87,306.51,107.91,304.24,107.91Zm-.93-7.86H302v1.47h1.27c.59,0,.87-.22.87-.72S303.9,100.05,303.31,100.05Zm.22,3.75H302v1.48h1.49c.59,0,.87-.21.87-.73S304.12,103.8,303.53,103.8Z" style="fill: rgb(64, 123, 255); transform-origin: 303.26px 102.68px;" id="elqe4mvgvpi8r" class="animable"></path><path d="M314,108a5.37,5.37,0,1,1,5.36-5.38A5.28,5.28,0,0,1,314,108Zm0-3.06c1.31,0,2-.93,2-2.32s-.73-2.33-2-2.33-2,.91-2,2.33S312.62,105,314,105Z" style="fill: rgb(64, 123, 255); transform-origin: 313.99px 102.63px;" id="elrwb6ca24bwr" class="animable"></path><path d="M327.21,106.33h-3.48l-.52,1.58h-3.44l3.82-10.46h3.78l3.82,10.46h-3.46ZM325.47,101l-1,2.91h1.89Z" style="fill: rgb(64, 123, 255); transform-origin: 325.48px 102.68px;" id="ellyzzlps9ed9" class="animable"></path><path d="M336.8,97.45c2.63,0,4,1.51,4,3.43a3.06,3.06,0,0,1-2.26,3l2.28,4h-3.6l-2-3.76h0v3.76h-3.28V97.45Zm-.29,2.75h-1.3V102h1.3c.62,0,.94-.27.94-.89A.83.83,0,0,0,336.51,100.2Z" style="fill: rgb(64, 123, 255); transform-origin: 336.38px 102.665px;" id="elrxaizj4yptj" class="animable"></path><path d="M351.62,102.65a5.11,5.11,0,0,1-5.44,5.26h-4.35V97.45h4.35C349.52,97.45,351.62,99.63,351.62,102.65ZM345.89,105a2.34,2.34,0,1,0,0-4.67h-.78V105Z" style="fill: rgb(64, 123, 255); transform-origin: 346.726px 102.685px;" id="el48v6avksyia" class="animable"></path></g><defs>     <filter id="active" height="200%">         <feMorphology in="SourceAlpha" result="DILATED" operator="dilate" radius="2"></feMorphology>                <feFlood flood-color="#32DFEC" flood-opacity="1" result="PINK"></feFlood>        <feComposite in="PINK" in2="DILATED" operator="in" result="OUTLINE"></feComposite>        <feMerge>            <feMergeNode in="OUTLINE"></feMergeNode>            <feMergeNode in="SourceGraphic"></feMergeNode>        </feMerge>    </filter>    <filter id="hover" height="200%">        <feMorphology in="SourceAlpha" result="DILATED" operator="dilate" radius="2"></feMorphology>                <feFlood flood-color="#ff0000" flood-opacity="0.5" result="PINK"></feFlood>        <feComposite in="PINK" in2="DILATED" operator="in" result="OUTLINE"></feComposite>        <feMerge>            <feMergeNode in="OUTLINE"></feMergeNode>            <feMergeNode in="SourceGraphic"></feMergeNode>        </feMerge>            <feColorMatrix type="matrix" values="0   0   0   0   0                0   1   0   0   0                0   0   0   0   0                0   0   0   1   0 "></feColorMatrix>    </filter></defs></svg>