<svg id="visual" viewBox="0 0 960 540" width="960" height="540" xmlns="http://www.w3.org/2000/svg" xmlns:xlink="http://www.w3.org/1999/xlink" version="1.1"><rect x="0" y="0" width="960" height="540" fill="#ffffff"></rect><path d="M0 365L22.8 366.7C45.7 368.3 91.3 371.7 137 381.7C182.7 391.7 228.3 408.3 274 406.7C319.7 405 365.3 385 411.2 385.2C457 385.3 503 405.7 548.8 422C594.7 438.3 640.3 450.7 686 436.3C731.7 422 777.3 381 823 371.8C868.7 362.7 914.3 385.3 937.2 396.7L960 408L960 541L937.2 541C914.3 541 868.7 541 823 541C777.3 541 731.7 541 686 541C640.3 541 594.7 541 548.8 541C503 541 457 541 411.2 541C365.3 541 319.7 541 274 541C228.3 541 182.7 541 137 541C91.3 541 45.7 541 22.8 541L0 541Z" fill="#0066FF" stroke-linecap="round" stroke-linejoin="miter"></path></svg>